<svg width="25" height="24" viewBox="0 0 25 24" fill="none" xmlns="http://www.w3.org/2000/svg">
<path d="M24.0058 9.64963H23.0372V9.59983H12.2148V14.3998H19.0107C18.0192 17.1939 15.3551 19.1997 12.2148 19.1997C8.23042 19.1997 4.99994 15.9759 4.99994 11.9998C4.99994 8.02366 8.23042 4.79992 12.2148 4.79992C14.054 4.79992 15.7273 5.4923 17.0013 6.62329L20.4026 3.22914C18.2549 1.23178 15.3822 0 12.2148 0C5.57413 0 0.190002 5.37291 0.190002 11.9998C0.190002 18.6267 5.57413 23.9996 12.2148 23.9996C18.8556 23.9996 24.2397 18.6267 24.2397 11.9998C24.2397 11.1952 24.1567 10.4098 24.0058 9.64963Z" fill="#FFC107"/>
<path d="M1.57568 6.41449L5.52645 9.30584C6.59545 6.66468 9.1844 4.79992 12.2141 4.79992C14.0533 4.79992 15.7265 5.4923 17.0006 6.62328L20.4018 3.22914C18.2541 1.23178 15.3814 0 12.2141 0C7.59532 0 3.58984 2.60215 1.57568 6.41449Z" fill="#FF3D00"/>
<path d="M12.215 24C15.321 24 18.1433 22.8138 20.2771 20.8848L16.5554 17.7421C15.3075 18.6891 13.7827 19.2013 12.215 19.2001C9.08734 19.2001 6.43166 17.2099 5.43119 14.4326L1.50989 17.4475C3.5 21.3336 7.54155 24 12.215 24Z" fill="#4CAF50"/>
<path d="M24.0058 9.64964H23.0372V9.59984H12.2148V14.3998H19.0107C18.5364 15.7296 17.6822 16.8916 16.5534 17.7423L16.5552 17.7411L20.2769 20.8838C20.0136 21.1226 24.2397 17.9997 24.2397 11.9998C24.2397 11.1952 24.1567 10.4098 24.0058 9.64964Z" fill="#1976D2"/>
</svg>
