<svg width="19" height="21" viewBox="0 0 19 21" fill="none" xmlns="http://www.w3.org/2000/svg">
<path d="M16.1844 8.09734H17.1942C17.462 8.09734 17.7188 8.20372 17.9081 8.39308C18.0975 8.58244 18.2039 8.83927 18.2039 9.10707V19.2043C18.2039 19.4721 18.0975 19.729 17.9081 19.9183C17.7188 20.1077 17.462 20.2141 17.1942 20.2141H1.03853C0.770739 20.2141 0.513911 20.1077 0.324551 19.9183C0.13519 19.729 0.0288086 19.4721 0.0288086 19.2043L0.0288086 9.10707C0.0288086 8.83927 0.13519 8.58244 0.324551 8.39308C0.513911 8.20372 0.770739 8.09734 1.03853 8.09734H2.04826V7.08762C2.04826 6.15942 2.23108 5.24032 2.58629 4.38278C2.94149 3.52524 3.46212 2.74606 4.11845 2.08973C4.77479 1.43339 5.55397 0.912762 6.41151 0.557557C7.26905 0.202353 8.18815 0.0195313 9.11635 0.0195313C10.0445 0.0195313 10.9636 0.202353 11.8212 0.557557C12.6787 0.912762 13.4579 1.43339 14.1142 2.08973C14.7706 2.74606 15.2912 3.52524 15.6464 4.38278C16.0016 5.24032 16.1844 6.15942 16.1844 7.08762V8.09734ZM2.04826 10.1168L2.04826 18.1946H16.1844V10.1168L2.04826 10.1168ZM8.10662 12.1362H10.1261L10.1261 16.1752H8.10662L8.10662 12.1362ZM14.165 8.09734V7.08762C14.165 5.74863 13.6331 4.4645 12.6863 3.51769C11.7395 2.57089 10.4553 2.03898 9.11635 2.03898C7.77736 2.03898 6.49323 2.57089 5.54642 3.51769C4.59962 4.4645 4.06771 5.74863 4.06771 7.08762L4.06771 8.09734H14.165Z" fill="white"/>
</svg>
